<svg xmlns="http://www.w3.org/2000/svg" version="1.1" xmlns:xlink="http://www.w3.org/1999/xlink"
    width="512" height="512" x="0" y="0" viewBox="0 0 32 32"
    style="enable-background:new 0 0 512 512" xml:space="preserve" class=""><g><g fill="#000" fill-rule="evenodd" clip-rule="evenodd"><path d="M16 11a4 4 0 1 0 0 8 4 4 0 0 0 0-8zm-6 4a6 6 0 1 1 12 0 6 6 0 0 1-12 0z" fill="#e64a19" opacity="1" data-original="#000000" class=""/><path d="M16 21a8 8 0 0 0-7.133 4.378 1 1 0 1 1-1.784-.906 10 10 0 0 1 17.834 0 1 1 0 0 1-1.784.906A8 8 0 0 0 16 20.999zM21 7a1 1 0 0 1 1-1h6a1 1 0 1 1 0 2h-6a1 1 0 0 1-1-1z" fill="#e64a19" opacity="1" data-original="#000000" class=""/><path d="M25 3a1 1 0 0 1 1 1v6a1 1 0 1 1-2 0V4a1 1 0 0 1 1-1z" fill="#e64a19" opacity="1" data-original="#000000" class=""/><path d="M17.728 5.137A10.66 10.66 0 0 0 16.002 5H16a11 11 0 1 0 11 11v-.002a10.667 10.667 0 0 0-.137-1.726 1 1 0 1 1 1.974-.32A13 13 0 1 1 16 3M29 16.002v.001L28 16h1z" fill="#e64a19" opacity="1" data-original="#000000" class=""/></g></g></svg>