<?xml version="1.0" encoding="UTF-8" standalone="no" ?>
<!DOCTYPE svg PUBLIC "-//W3C//DTD SVG 1.1//EN" "http://www.w3.org/Graphics/SVG/1.1/DTD/svg11.dtd">
<svg xmlns="http://www.w3.org/2000/svg" xmlns:xlink="http://www.w3.org/1999/xlink" version="1.1" width="1080" height="1080" viewBox="0 0 1080 1080" xml:space="preserve">
<desc>Created with Fabric.js 5.2.4</desc>
<defs>
</defs>
<g transform="matrix(1 0 0 1 540 540)" id="da87d060-1423-437c-b95a-e732275cf3ef"  >
<rect style="stroke: none; stroke-width: 1; stroke-dasharray: none; stroke-linecap: butt; stroke-dashoffset: 0; stroke-linejoin: miter; stroke-miterlimit: 4; fill: rgb(230,74,25); fill-rule: nonzero; opacity: 1;" vector-effect="non-scaling-stroke"  x="-540" y="-540" rx="0" ry="0" width="1080" height="1080" />
</g>
<g transform="matrix(1 0 0 1 540 540)" id="99c4eae2-08ec-4f74-ae6a-238c3c4b6a3c"  >
</g>
<g transform="matrix(2.11 0 0 2.11 540 540)"  >
<g style=""   >
		<g transform="matrix(1 0 0 1 0 32.63)"  >
<path style="stroke: rgb(230,74,25); stroke-width: 30; stroke-dasharray: none; stroke-linecap: round; stroke-dashoffset: 0; stroke-linejoin: round; stroke-miterlimit: 10; fill: none; fill-rule: nonzero; opacity: 1;" vector-effect="non-scaling-stroke"  transform=" translate(-256, -288.63)" d="M 151.633 339.687 C 151.633 253.255 221.7 183.18800000000002 308.132 183.18800000000002 C 394.564 183.18800000000002 464.63 253.256 464.63 339.687 L 464.63 394.068 L 151.633 394.068 L 151.633 339.687 z M 15 274.122 L 45.917 274.122 M 15 214.122 L 210.529 214.122 M 106.612 274.122 L 157.529 274.122 M 15 334.122 L 137.529 334.122 M 119.263 394.068 L 497 394.068" stroke-linecap="round" />
</g>
		<g transform="matrix(1 0 0 1 52.13 -105.44)"  >
<circle style="stroke: rgb(230,74,25); stroke-width: 30; stroke-dasharray: none; stroke-linecap: round; stroke-dashoffset: 0; stroke-linejoin: round; stroke-miterlimit: 10; fill: none; fill-rule: nonzero; opacity: 1;" vector-effect="non-scaling-stroke"  cx="0" cy="0" r="32.628" />
</g>
</g>
</g>
<g transform="matrix(2.11 0 0 2.11 540 540)"  >
<g style=""   >
		<g transform="matrix(1 0 0 1 0 32.63)"  >
<path style="stroke: rgb(255,255,255); stroke-width: 30; stroke-dasharray: none; stroke-linecap: round; stroke-dashoffset: 0; stroke-linejoin: round; stroke-miterlimit: 10; fill: none; fill-rule: nonzero; opacity: 1;" vector-effect="non-scaling-stroke"  transform=" translate(-256, -288.63)" d="M 151.633 339.687 C 151.633 253.255 221.7 183.18800000000002 308.132 183.18800000000002 C 394.564 183.18800000000002 464.63 253.256 464.63 339.687 L 464.63 394.068 L 151.633 394.068 L 151.633 339.687 z M 15 274.122 L 45.917 274.122 M 15 214.122 L 210.529 214.122 M 106.612 274.122 L 157.529 274.122 M 15 334.122 L 137.529 334.122 M 119.263 394.068 L 497 394.068" stroke-linecap="round" />
</g>
		<g transform="matrix(1 0 0 1 52.13 -105.44)"  >
<circle style="stroke: rgb(255,255,255); stroke-width: 30; stroke-dasharray: none; stroke-linecap: round; stroke-dashoffset: 0; stroke-linejoin: round; stroke-miterlimit: 10; fill: none; fill-rule: nonzero; opacity: 1;" vector-effect="non-scaling-stroke"  cx="0" cy="0" r="32.628" />
</g>
</g>
</g>
<g transform="matrix(NaN NaN NaN NaN 0 0)"  >
<g style=""   >
</g>
</g>
<g transform="matrix(NaN NaN NaN NaN 0 0)"  >
<g style=""   >
</g>
</g>
<g transform="matrix(NaN NaN NaN NaN 0 0)"  >
<g style=""   >
</g>
</g>
</svg>